<?xml version="1.0" encoding="utf-8"?>
<!-- Generator: Adobe Illustrator 24.0.1, SVG Export Plug-In . SVG Version: 6.00 Build 0)  -->
<svg version="1.1" id="Camada_1" xmlns="http://www.w3.org/2000/svg" xmlns:xlink="http://www.w3.org/1999/xlink" x="0px" y="0px"
	 viewBox="0 0 24 24" style="enable-background:new 0 0 24 24;" xml:space="preserve">
<style type="text/css">
	.st0{fill:none;}
	.st1{fill:none;stroke:#6E5430;stroke-width:2;stroke-linecap:round;stroke-linejoin:round;}
</style>
<path class="st0" d="M0,0h24v24H0V0z"/>
<path class="st1" d="M12,5.5C10.9,4.9,9.4,4,8,4C5.9,4,4,5.2,4,9c0,4.9,1.1,8.4,2.7,10.5c0.6,0.8,2,0.5,2.6-0.2
	c0.4-0.5,0.8-1.4,1.3-2.8c0.3-0.8,0.9-1.5,1.5-1.5c0.6,0,1.2,0.7,1.5,1.5c0.4,1.4,0.9,2.3,1.3,2.8c0.6,0.8,2,1,2.6,0.2
	C18.9,17.4,20,13.9,20,9c0-3.7-1.9-5-4-5C14.6,4,13.1,4.9,12,5.5"/>
<path class="st1" d="M12,5.5L15,7"/>
</svg>
